<svg viewBox="0 0 182 232" fill="none" xmlns="http://www.w3.org/2000/svg">
<path opacity="0.4" d="M101.395 140C140.543 140 172.278 138.147 172.278 135.862C172.278 133.576 140.543 131.723 101.395 131.723C62.248 131.723 30.5128 133.576 30.5128 135.862C30.5128 138.147 62.248 140 101.395 140Z" fill="#8A1114"/>
<path d="M80.6997 27.4339C77.8519 29.7809 75.0698 33.5647 76.7003 37.6702C78.3308 41.7757 88.7645 42.1888 90.958 40.4998C93.8095 38.3063 91.2906 28.538 89.0679 28.4795C88.8997 24.8566 83.0797 25.4707 80.6997 27.4339Z" fill="#263238"/>
<path d="M76.7113 66.9714C76.7113 66.9714 77.8555 87.7876 79.1168 99.0585C79.2448 109.642 81.6759 133.551 81.6759 133.551H84.3483C84.7979 121.688 88.0991 110.611 85.9056 100.148C91.0238 79.6023 87.5179 66.9861 87.5179 66.9861L76.7113 66.9714Z" fill="#FFB573"/>
<path d="M79.6213 66.9861C79.6213 66.9861 85.1233 90.0762 86.6295 99.9103C88.2161 110.242 90.5777 130.29 90.4681 133.544H92.7749C92.7749 133.544 96.6501 113.261 93.0637 100.276C96.0213 71.0294 88.7242 67.008 88.7242 67.008L79.6213 66.9861Z" fill="#FFB573"/>
<path d="M66.4275 40.2804C66.2556 39.0338 63.9671 38.9278 63.9671 38.9278L62.8703 38.3757C62.6778 38.2579 62.447 38.2194 62.2267 38.2685C62.0064 38.3176 61.8137 38.4505 61.6895 38.6389L61.3239 39.2458C61.2175 39.4847 61.1998 39.7537 61.2742 40.0044C61.3487 40.2551 61.5102 40.471 61.7297 40.6131L62.0624 40.8544C62.6284 41.2589 63.298 41.4935 63.9927 41.5307L65.0053 41.5855C65.2277 41.5983 65.4506 41.5711 65.6634 41.5051C65.9153 41.4259 66.1302 41.2584 66.2686 41.0334C66.407 40.8084 66.4595 40.541 66.4165 40.2804H66.4275Z" fill="#FFB573"/>
<path d="M78.4807 47.5737C78.3418 47.7163 78.2687 47.7857 78.1663 47.8771L77.8775 48.133C77.6874 48.2939 77.49 48.4438 77.2962 48.5937C76.9014 48.8861 76.4992 49.1567 76.0861 49.4126C75.2571 49.9115 74.3862 50.3372 73.4832 50.6848C71.6848 51.3844 69.7755 51.7559 67.8459 51.7815H67.6778C67.5897 51.7797 67.5017 51.7723 67.4145 51.7596C67.2428 51.7345 67.0747 51.6891 66.9137 51.6243C66.6426 51.5126 66.3947 51.3514 66.1825 51.1491C65.9078 50.8792 65.6837 50.5622 65.5208 50.2132C65.2928 49.7189 65.1223 49.2 65.0127 48.6668C64.8188 47.7491 64.6966 46.8177 64.6471 45.8811C64.5481 44.0871 64.5848 42.2882 64.7568 40.4997C64.7771 40.2998 64.8703 40.1144 65.0184 39.9787C65.1666 39.843 65.3595 39.7666 65.5604 39.7639C65.7613 39.7612 65.9562 39.8324 66.108 39.964C66.2598 40.0957 66.3579 40.2785 66.3836 40.4778V40.4997C66.581 42.2033 66.8077 43.9325 67.1148 45.5886C67.2501 46.3906 67.437 47.1832 67.6741 47.9612C67.7685 48.2795 67.8985 48.586 68.0616 48.8752C68.1274 48.9812 68.1932 49.0324 68.164 48.9958C68.1156 48.9435 68.0554 48.9034 67.9885 48.8788C67.9292 48.8519 67.8665 48.8334 67.8021 48.824H67.7034C68.4893 48.7522 69.2689 48.6227 70.0358 48.4365C70.7957 48.2467 71.541 48.0023 72.2658 47.7053C72.9876 47.3964 73.6833 47.0296 74.346 46.6086C74.6786 46.4038 75.0004 46.1881 75.3111 45.9578C75.4646 45.8445 75.6109 45.7275 75.7571 45.6105L75.9691 45.435L76.13 45.2925L76.225 45.2084C76.5439 44.9228 76.9616 44.7731 77.3892 44.7911C77.8168 44.8091 78.2205 44.9934 78.5142 45.3048C78.8079 45.6161 78.9684 46.0298 78.9614 46.4578C78.9545 46.8857 78.7807 47.294 78.477 47.5956L78.4807 47.5737Z" fill="#FFB573"/>
<path d="M80.2793 43.5158C77.3876 43.0332 74.3533 45 72.7813 46.6013C71.9697 49.0434 74.569 52.0119 74.569 52.0119C74.569 52.0119 78.2723 49.738 79.6067 48.1843C80.941 46.6305 81.9464 43.7936 80.2793 43.5158Z" fill="#E0E0E0"/>
<path d="M89.2361 66.7082C89.2361 66.7082 93.316 69.6036 94.0837 79.2294C94.3908 83.0205 94.9428 98.1446 96.1054 104.652C91.9194 107.642 79.3873 107.233 77.4241 105.485C77.9798 92.3245 72.9494 74.868 76.5979 66.8398C82.6373 66.0977 89.2361 66.7082 89.2361 66.7082Z" fill="#263238"/>
<path opacity="0.2" d="M85.0977 94.3133C85.1525 88.7821 84.3373 81.1707 81.8623 76.6594C82.7068 82.2894 85.0977 94.3133 85.0977 94.3133Z" fill="black"/>
<path d="M74.6823 47.9759C74.6823 51.1089 72.1854 52.754 75.0113 55.1669C75.1795 57.8722 75.3769 62.7161 76.2068 67.1287C77.0659 68.3241 83.3466 68.2254 89.8722 66.8106C89.0204 63.0269 89.3348 56.8632 91.5685 48.4329C91.6875 47.965 91.7086 47.4776 91.6304 47.0012C91.5523 46.5249 91.3766 46.0698 91.1144 45.6644C90.8522 45.2591 90.5091 44.9123 90.1066 44.6457C89.7041 44.3792 89.251 44.1986 88.7754 44.1153C88.238 44.0203 87.6787 43.9326 87.0865 43.8594C85.0456 43.5586 82.9857 43.4046 80.9228 43.3988C80.2574 43.3988 79.5665 43.4427 78.9084 43.4865C77.7652 43.5572 76.6919 44.0607 75.9068 44.8947C75.1217 45.7287 74.6838 46.8305 74.6823 47.9759Z" fill="#E0E0E0"/>
<path d="M88.0136 53.4156L80.3548 55.15C80.0634 55.216 79.8807 55.5058 79.9467 55.7972L82.4263 66.747C82.4923 67.0384 82.7821 67.2212 83.0735 67.1552L90.7323 65.4208C91.0237 65.3548 91.2065 65.065 91.1405 64.7736L88.6608 53.8238C88.5948 53.5324 88.305 53.3496 88.0136 53.4156Z" fill="#8A1114"/>
<path d="M81.6795 47.4385C81.6795 47.4385 80.4402 48.9227 79.4166 49.2664L79.2996 49.9975C80.594 49.8322 81.7887 49.2161 82.6739 48.2574L81.6795 47.4385Z" fill="#8A1114"/>
<path d="M78.3125 46.5428C78.3125 46.5428 78.2613 48.473 78.7951 49.4162L78.3966 50.045C77.5348 49.0643 77.0456 47.8115 77.0147 46.5062L78.3125 46.5428Z" fill="#8A1114"/>
<path d="M86.8342 36.9061C86.3443 38.851 85.7704 42.4374 87.0865 43.8522C87.0865 43.8522 82.184 45.1902 78.9888 49.5772C77.5265 44.9672 80.9374 43.3915 80.9374 43.3915C83.1711 43.026 83.2003 41.3955 82.8932 39.8308L86.8342 36.9061Z" fill="#FFB573"/>
<path opacity="0.2" d="M85.2293 38.1016L82.8969 39.8381C82.9723 40.1992 83.0163 40.5661 83.0285 40.9348C83.8767 40.8763 85.0831 40.0391 85.222 39.1654C85.2861 38.8139 85.2886 38.4539 85.2293 38.1016V38.1016Z" fill="black"/>
<path d="M89.1081 33.4404C88.1686 36.5917 87.8396 37.948 85.8618 39.1873C82.8859 41.0481 79.2813 39.1325 79.2594 35.7472C79.2594 32.6983 80.7838 28.07 84.1728 27.5655C87.5617 27.061 90.0623 30.2854 89.1081 33.4404Z" fill="#FFB573"/>
<path d="M86.6514 28.8377C85.7631 31.8757 86.5235 35.0526 88.3368 35.4181C90.8556 34.4786 90.7313 31.6819 90.0879 30.4024C89.4445 29.1228 87.1632 27.0865 86.6514 28.8377Z" fill="#263238"/>
<path d="M88.0297 34.2958C86.6295 34.7601 86.3589 35.6996 86.3589 35.6996C86.3589 35.6996 87.3204 35.0196 88.2417 35.1476C88.108 34.8832 88.0355 34.592 88.0297 34.2958Z" fill="#263238"/>
<path d="M84.5311 33.1442C84.4689 33.4038 84.2825 33.5793 84.1106 33.539C83.9388 33.4988 83.8474 33.2466 83.9096 32.987C83.9717 32.7275 84.1582 32.5483 84.33 32.5922C84.5018 32.6361 84.5786 32.8847 84.5311 33.1442Z" fill="#263238"/>
<path d="M81.2883 32.3728C81.2262 32.6324 81.0398 32.8079 80.8679 32.764C80.6961 32.7201 80.6047 32.4752 80.6669 32.212C80.729 31.9487 80.9155 31.7769 81.0873 31.8208C81.2591 31.8647 81.3542 32.1096 81.2883 32.3728Z" fill="#263238"/>
<path d="M81.1677 31.8538L80.5791 31.5138C80.5791 31.5138 80.7875 32.0841 81.1677 31.8538Z" fill="#263238"/>
<path d="M81.9025 32.797C81.5309 33.3323 81.0853 33.8123 80.5791 34.2228C80.6903 34.3516 80.8277 34.4551 80.9822 34.5263C81.1367 34.5976 81.3046 34.6349 81.4748 34.6359L81.9025 32.797Z" fill="#ED893E"/>
<path d="M89.1264 36.6027C88.9328 36.83 88.6925 37.0129 88.4219 37.1391C88.1512 37.2652 87.8566 37.3317 87.5581 37.3338C86.794 37.3119 86.6624 36.4345 87.0828 35.7143C87.4484 35.0636 88.3111 34.2922 88.9765 34.6614C89.6419 35.0307 89.6455 36.0104 89.1264 36.6027Z" fill="#FFB573"/>
<path d="M85.1416 32.0256C85.1022 32.0061 85.072 31.972 85.0575 31.9305C84.9988 31.7394 84.8972 31.5642 84.7603 31.4184C84.6234 31.2727 84.4549 31.1602 84.2678 31.0897C84.2274 31.0785 84.193 31.0521 84.1718 31.0159C84.1506 30.9797 84.1444 30.9366 84.1545 30.8959C84.1591 30.8759 84.1678 30.857 84.1801 30.8404C84.1923 30.8239 84.2078 30.81 84.2257 30.7997C84.2435 30.7894 84.2633 30.7829 84.2837 30.7806C84.3042 30.7783 84.3249 30.7802 84.3446 30.7863C84.5838 30.8696 84.8001 31.0079 84.976 31.1902C85.1519 31.3724 85.2825 31.5935 85.3573 31.8355C85.3647 31.8549 85.3679 31.8756 85.3669 31.8963C85.3659 31.917 85.3605 31.9373 85.3513 31.9559C85.342 31.9744 85.329 31.9909 85.313 32.0041C85.297 32.0174 85.2785 32.0272 85.2586 32.0329C85.22 32.0453 85.1783 32.0427 85.1416 32.0256V32.0256Z" fill="#263238"/>
<path d="M80.1112 30.8155C80.0697 30.8169 80.0292 30.8025 79.9978 30.7753C79.969 30.7453 79.9529 30.7054 79.9529 30.6638C79.9529 30.6222 79.969 30.5823 79.9978 30.5523C80.1608 30.3638 80.3669 30.2176 80.5986 30.1259C80.8303 30.0342 81.0807 29.9999 81.3285 30.0259C81.3703 30.0331 81.4076 30.0561 81.4328 30.0901C81.458 30.1242 81.4691 30.1666 81.4638 30.2087C81.4575 30.2499 81.4351 30.2869 81.4015 30.3116C81.3679 30.3362 81.3259 30.3466 81.2847 30.3403C81.0885 30.3207 80.8906 30.3491 80.7078 30.423C80.525 30.4968 80.3629 30.614 80.2355 30.7643C80.2197 30.7813 80.2004 30.7947 80.1789 30.8035C80.1575 30.8124 80.1343 30.8165 80.1112 30.8155V30.8155Z" fill="#263238"/>
<path d="M84.4031 32.6288L83.8145 32.2852C83.8145 32.2852 84.0229 32.8591 84.4031 32.6288Z" fill="#263238"/>
<path d="M84.213 58.5851L81.2883 58.0184L81.6174 61.3781C81.6174 61.3781 83.8108 61.2831 85.0611 60.2814L85.1781 59.8427C85.0428 59.1152 84.8783 58.8483 84.213 58.5851Z" fill="#FFB573"/>
<path d="M79.5299 59.4515L79.8699 60.8736C79.9196 61.0779 80.044 61.2561 80.2186 61.3731C80.3932 61.4902 80.6053 61.5376 80.8131 61.5061L81.632 61.3781L81.303 58.0184L80.0563 58.4718C79.8638 58.5423 79.7039 58.681 79.6069 58.8616C79.5099 59.0422 79.4825 59.2521 79.5299 59.4515V59.4515Z" fill="#FFB573"/>
<path d="M90.7532 46.5721C91.6419 48.2739 92.4174 50.0325 93.0747 51.8364C93.4037 52.7394 93.7144 53.6643 93.963 54.6112C94.2341 55.5923 94.4177 56.5955 94.5114 57.609C94.5333 57.8758 94.5443 58.15 94.548 58.4279V58.5266V58.6838C94.5391 58.7915 94.5195 58.898 94.4895 59.0018C94.4358 59.2034 94.352 59.3956 94.2409 59.5721C94.0715 59.8349 93.85 60.0601 93.5901 60.2338C93.2723 60.4453 92.9214 60.6022 92.5519 60.6981C92.272 60.7755 91.9875 60.8353 91.7001 60.8773C90.7036 61.0026 89.6981 61.0405 88.695 60.9906C86.7933 60.9028 84.9006 60.6756 83.0322 60.3106C82.8298 60.2771 82.6474 60.1685 82.5216 60.0065C82.3957 59.8445 82.3355 59.641 82.3531 59.4366C82.3706 59.2322 82.4645 59.042 82.6162 58.9038C82.7678 58.7656 82.9659 58.6896 83.1711 58.6911V58.6911C84.999 58.6582 86.8488 58.6107 88.6292 58.4754C89.4816 58.4163 90.3284 58.2941 91.1627 58.1098C91.333 58.0704 91.5004 58.0191 91.6635 57.9563C91.7444 57.9339 91.8193 57.8939 91.8829 57.8393C91.8127 57.8808 91.7547 57.9401 91.7147 58.0111C91.6661 58.0881 91.6292 58.1719 91.605 58.2597C91.5921 58.309 91.5823 58.3591 91.5758 58.4096C91.5739 58.4339 91.5739 58.4584 91.5758 58.4827V58.4827C91.5758 58.2963 91.5429 58.1171 91.5136 57.9124C91.1939 56.218 90.6952 54.5624 90.0257 52.9734C89.364 51.3246 88.6073 49.6466 87.8322 48.0636V48.0344C87.6751 47.6518 87.6679 47.2241 87.8119 46.8364C87.9559 46.4488 88.2407 46.1296 88.6095 45.9424C88.9783 45.7552 89.4041 45.7138 89.802 45.8265C90.2 45.9391 90.5409 46.1975 90.7569 46.5501L90.7532 46.5721Z" fill="#FFB573"/>
<path d="M88.9656 44.2287C91.0603 44.6162 91.9926 46.4989 93.5134 50.2571C93.0491 52.7869 89.3311 54.1177 89.3311 54.1177C89.3311 54.1177 87.1961 50.3339 86.7721 48.3269C86.348 46.3198 86.8525 43.8375 88.9656 44.2287Z" fill="#E0E0E0"/>
<path d="M84.5384 133.58C84.5212 133.532 84.488 133.49 84.4441 133.463C84.4002 133.436 84.3484 133.424 84.2971 133.43L81.8184 133.394C81.5648 133.377 81.3115 133.431 81.0873 133.551C79.9526 134.26 78.6781 134.715 77.351 134.885C76.8246 134.966 77.0622 135.854 78.3052 135.869C80.3561 135.891 80.729 135.737 82.4801 135.756C83.9754 135.774 83.2625 135.84 84.4506 135.869C84.7358 135.869 84.9697 135.69 84.9332 135.503L84.5384 133.58Z" fill="#263238"/>
<path d="M93.0893 133.58C93.0716 133.532 93.0382 133.491 92.9945 133.464C92.9508 133.437 92.8992 133.425 92.848 133.43L90.8263 133.394C90.5726 133.376 90.319 133.43 90.0952 133.551C89.364 134.059 89.4664 134.648 87.7993 134.885C87.2729 134.966 87.5325 135.854 88.7754 135.869C90.8263 135.891 90.702 135.756 91.5356 135.756C92.3691 135.756 91.8573 135.84 93.0491 135.869C93.3342 135.869 93.5645 135.69 93.5207 135.503L93.0893 133.58Z" fill="#263238"/>
<path d="M80.3305 48.0015C81.3688 48.0453 83.2734 48.8971 83.884 49.8074C84.7467 48.9118 88.1174 46.8316 88.1759 44.013C87.7633 43.6163 87.2434 43.3493 86.6806 43.2452C86.6806 43.2452 82.184 45.4205 80.3305 48.0015Z" fill="#FAFAFA"/>
<path d="M78.6488 47.8552C78.6488 47.8552 78.3673 45.5777 81.1238 43.3659C80.846 43.1392 79.7565 43.3951 79.7565 43.3951C79.7565 43.3951 76.5358 44.7807 76.6308 48.367C77.2112 47.9403 77.9352 47.7567 78.6488 47.8552V47.8552Z" fill="#FAFAFA"/>
<path d="M78.2394 48.8204C77.8409 49.0069 77.6837 50.3047 78.2394 50.6081C78.7951 50.9115 78.7402 49.6722 79.0619 49.2481C79.3837 48.8241 78.9376 48.495 78.2394 48.8204Z" fill="#8A1114"/>
<path d="M78.7293 49.3249C78.4441 49.6905 78.8134 50.9334 79.4275 50.9298C80.0417 50.9261 79.5116 49.833 79.6323 49.292C79.7529 48.7509 79.2155 48.6815 78.7293 49.3249Z" fill="#8A1114"/>
<path d="M78.8134 50.2498C78.1297 49.1932 78.0822 54.761 79.7383 56.9545C79.6286 54.7939 80.7875 51.7304 78.8134 50.2498Z" fill="#8A1114"/>
<path d="M78.7512 50.2023C78.4478 49.1275 76.9233 53.8362 77.7678 56.1357C78.2467 54.2749 80.0344 51.979 78.7512 50.2023Z" fill="#8A1114"/>
<path d="M83.8474 35.6412C84.0067 35.5718 84.1596 35.4886 84.3044 35.3926C84.3126 35.3844 84.3191 35.3747 84.3235 35.3641C84.3279 35.3534 84.3302 35.342 84.3302 35.3304C84.3302 35.3189 84.3279 35.3074 84.3235 35.2968C84.3191 35.2861 84.3126 35.2764 84.3044 35.2683C84.2892 35.2488 84.2672 35.2358 84.2429 35.2317C84.2185 35.2276 84.1935 35.2329 84.1728 35.2463C83.8468 35.4649 83.4759 35.6077 83.0874 35.664C82.6989 35.7203 82.3028 35.6887 81.9281 35.5717C81.9171 35.5669 81.9052 35.5642 81.8931 35.564C81.8811 35.5638 81.8691 35.5659 81.8579 35.5704C81.8467 35.5748 81.8365 35.5814 81.8278 35.5898C81.8192 35.5981 81.8122 35.6081 81.8075 35.6192C81.7992 35.642 81.8004 35.6671 81.8107 35.6891C81.821 35.711 81.8395 35.728 81.8623 35.7362C82.5131 35.9504 83.2201 35.9165 83.8474 35.6412V35.6412Z" fill="#263238"/>
<path d="M73.2382 38.2185H54.5607V38.8254H73.2382V38.2185Z" fill="#8A1114"/>
<path d="M72.7922 38.8253H55.0067L55.7891 39.2494H72.0099L72.7922 38.8253Z" fill="#8A1114"/>
<path opacity="0.2" d="M72.7922 38.8253H55.0067L55.7891 39.2494H72.0099L72.7922 38.8253Z" fill="black"/>
<path d="M60.5453 21.9612C60.436 21.9602 60.3315 21.9164 60.2542 21.8391C60.177 21.7618 60.1331 21.6573 60.1322 21.5481V20.1625C60.1331 20.0532 60.177 19.9487 60.2542 19.8714C60.3315 19.7942 60.436 19.7503 60.5453 19.7494V19.7494C60.6545 19.7503 60.7591 19.7942 60.8363 19.8714C60.9136 19.9487 60.9574 20.0532 60.9584 20.1625V21.5481C60.9574 21.6573 60.9136 21.7618 60.8363 21.8391C60.7591 21.9164 60.6545 21.9602 60.5453 21.9612V21.9612Z" fill="#263238"/>
<path d="M61.2106 20.0784V19.8956C61.2106 19.7179 61.0666 19.5739 60.8889 19.5739H60.2016C60.024 19.5739 59.8799 19.7179 59.8799 19.8956V20.0784C59.8799 20.256 60.024 20.4001 60.2016 20.4001H60.8889C61.0666 20.4001 61.2106 20.256 61.2106 20.0784Z" fill="#263238"/>
<path d="M61.207 24.9698V21.0179C61.207 20.9749 61.1901 20.9336 61.1601 20.9029C61.13 20.8721 61.0891 20.8543 61.0461 20.8534H60.0444C60.0014 20.8543 59.9605 20.8721 59.9304 20.9029C59.9004 20.9336 59.8835 20.9749 59.8836 21.0179V24.9698C59.8837 25.2668 59.8209 25.5605 59.6992 25.8315C59.5776 26.1024 59.4 26.3445 59.178 26.5418C58.9568 26.7406 58.7797 26.9835 58.6582 27.2549C58.5367 27.5263 58.4734 27.8201 58.4724 28.1175V38.2551H62.6144V28.1175C62.6142 27.82 62.5512 27.526 62.4296 27.2545C62.308 26.983 62.1306 26.7401 61.9089 26.5418V26.5418C61.6879 26.3439 61.5112 26.1016 61.3902 25.8307C61.2693 25.5598 61.2068 25.2665 61.207 24.9698V24.9698Z" fill="#8A1114"/>
<path d="M62.6145 29.3167H59.8799V35.8715H62.6145V29.3167Z" fill="#E0E0E0"/>
<path d="M66.4969 38.2185H66.0034C66.1677 38.2296 66.3326 38.2296 66.4969 38.2185Z" fill="#8A1114"/>
<path d="M69.4764 38.2185H68.9792C69.1448 38.2295 69.3109 38.2295 69.4764 38.2185Z" fill="#8A1114"/>
<path opacity="0.2" d="M65.8352 30.4865V32.1498C65.8352 33.4732 66.5883 34.5736 67.5425 34.7089V37.6336C67.5425 38.0832 67.1038 38.2112 66.7638 38.2404H68.7123C68.3723 38.2112 67.9336 38.0832 67.9336 37.6336V34.7089C68.8878 34.5773 69.6409 33.4769 69.6409 32.1498V30.4865H65.8352Z" fill="#8A1114"/>
<path d="M88.4866 28.9218C87.0243 29.5432 82.1255 29.7333 80.2062 29.3166C82.1913 26.5126 86.6514 25.69 88.4866 28.9218Z" fill="#263238"/>
<path d="M93.0966 38.9387C93.0825 38.9385 93.0686 38.935 93.0559 38.9287C93.0433 38.9224 93.0322 38.9133 93.0235 38.9022C92.976 38.8364 91.8975 37.2497 91.8756 33.0017C91.8756 31.2286 91.3308 29.8029 90.4132 29.0827C90.1748 28.8857 89.8935 28.7473 89.5919 28.6787C89.2903 28.6102 88.9769 28.6133 88.6767 28.6878C88.665 28.6905 88.6528 28.6908 88.6409 28.6887C88.629 28.6866 88.6177 28.6823 88.6075 28.6758C88.5973 28.6694 88.5885 28.661 88.5816 28.6511C88.5746 28.6413 88.5697 28.6301 88.567 28.6184C88.5644 28.6066 88.5641 28.5944 88.5662 28.5826C88.5682 28.5707 88.5726 28.5593 88.5791 28.5491C88.5855 28.539 88.5939 28.5302 88.6038 28.5232C88.6136 28.5163 88.6247 28.5113 88.6365 28.5087C88.9627 28.4311 89.3024 28.4292 89.6294 28.5034C89.9564 28.5775 90.2621 28.7257 90.5229 28.9364C91.4917 29.6932 92.051 31.1738 92.062 32.998C92.0839 37.1803 93.1587 38.7815 93.1587 38.7962C93.1658 38.806 93.1708 38.8171 93.1735 38.8289C93.1761 38.8406 93.1765 38.8528 93.1744 38.8647C93.1724 38.8766 93.168 38.888 93.1616 38.8982C93.1551 38.9084 93.1467 38.9172 93.1368 38.9241C93.1246 38.9318 93.1109 38.9367 93.0966 38.9387Z" fill="#263238"/>
<path d="M119.404 17.4169C120.424 18.8134 120.42 20.9886 120.073 22.1694C118.245 21.3396 118.53 18.956 118.53 18.956L119.404 17.4169Z" fill="#263238"/>
<path d="M124.869 34.7015L125.922 35.8604L127.019 37.0376C127.75 37.8163 128.481 38.5767 129.234 39.3079C129.6 39.6735 129.965 40.039 130.357 40.3607C130.748 40.6825 131.088 41.0261 131.472 41.3222C131.856 41.6183 132.203 41.8816 132.543 42.1082C132.799 42.2799 133.068 42.4315 133.347 42.5615L132.788 42.4738C132.622 42.4538 132.454 42.4912 132.313 42.5798C132.313 42.5798 132.4 42.5798 132.525 42.5067C132.864 42.2988 133.179 42.0535 133.464 41.7755C134.213 41.0643 134.913 40.3033 135.559 39.498C136.257 38.6608 136.937 37.7688 137.613 36.8658C138.29 35.9628 138.966 35.0379 139.631 34.1276L139.664 34.0874C139.897 33.7799 140.231 33.5639 140.607 33.477C140.983 33.39 141.377 33.4377 141.722 33.6116C142.066 33.7856 142.338 34.0748 142.492 34.4289C142.645 34.783 142.669 35.1796 142.56 35.5497C142.19 36.7051 141.761 37.8411 141.277 38.9533C140.798 40.05 140.268 41.1467 139.668 42.2435C139.046 43.3842 138.327 44.4691 137.518 45.4862C137.036 46.0875 136.492 46.6364 135.895 47.124C135.5 47.4439 135.066 47.714 134.605 47.9283C133.927 48.2442 133.184 48.3969 132.437 48.3743C132.299 48.3691 132.162 48.3507 132.027 48.3194L131.874 48.2865C131.073 48.0946 130.298 47.8061 129.567 47.4274C128.954 47.1154 128.362 46.7649 127.794 46.3782C126.752 45.6766 125.757 44.906 124.818 44.0714C123.897 43.2708 123.041 42.4336 122.211 41.5818C121.802 41.1504 121.393 40.719 121.001 40.273C120.61 39.827 120.234 39.392 119.821 38.8838C119.36 38.2142 119.163 37.3976 119.268 36.5915C119.373 35.7853 119.773 35.0467 120.391 34.5181C121.009 33.9895 121.8 33.7082 122.613 33.7286C123.426 33.749 124.202 34.0695 124.792 34.6284L124.869 34.7015Z" fill="#E0E0E0"/>
<path d="M141.269 36.1017L144.527 36.2589L143.47 31.8719C143.47 31.8719 140.439 32.095 139.953 33.6523C139.902 33.826 139.913 34.0118 139.982 34.1788L140.582 35.6155C140.639 35.7534 140.733 35.8723 140.855 35.9584C140.977 36.0445 141.12 36.0942 141.269 36.1017V36.1017Z" fill="#FF8B7B"/>
<path d="M147.433 33.6561L146.804 32.1937C146.682 31.9103 146.463 31.6792 146.187 31.5414C145.91 31.4036 145.594 31.3679 145.294 31.4406L143.466 31.8903L144.523 36.2773L146.716 35.3926C146.879 35.3282 147.028 35.2316 147.153 35.1085C147.278 34.9855 147.377 34.8386 147.443 34.6765C147.51 34.5144 147.544 34.3405 147.542 34.1652C147.54 33.9899 147.503 33.8167 147.433 33.6561V33.6561Z" fill="#FF8B7B"/>
<path d="M117.166 96.8541C113.708 81.6422 111.569 63.301 111.569 63.301L125.75 63.0743C125.75 63.0743 125.553 87.7913 125.582 98.1446C125.619 108.911 126.364 132.604 126.364 132.604H122.062C122.062 132.604 116.508 110.161 117.166 96.8541Z" fill="#263238"/>
<path d="M116.062 75.866L113.818 79.1928C114.487 83.3458 115.28 87.9192 116.205 92.4012C116.593 85.5136 116.527 77.5111 116.062 75.866Z" fill="black"/>
<path d="M132.104 134.714C132.104 134.714 126.178 133.317 125.732 132.378H122.442L122.464 135.862H124.496L124.807 135.54L125.323 135.862C126.968 135.862 131.34 135.796 132.375 135.427C132.395 135.294 132.381 135.159 132.334 135.034C132.286 134.909 132.207 134.799 132.104 134.714V134.714Z" fill="#263238"/>
<path d="M103.976 96.4264C105.618 81.1268 105.567 70.9051 107.566 63.3669L120.479 63.1731C120.479 63.1731 115.101 87.4404 112.604 97.5377C110.107 107.635 105.833 132.597 105.833 132.597H101.849C101.849 132.597 100.595 108.257 103.976 96.4264Z" fill="#263238"/>
<path d="M106.543 66.3463C106.258 68.1742 105.241 78.9881 104.188 82.9254C112.798 86.7457 125.959 85.2432 126.364 82.7646C126.244 78.1729 125.999 66.3463 125.999 66.3463H106.543Z" fill="#E0E0E0"/>
<path opacity="0.1" d="M107.022 68.3533C107.623 69.3275 108.349 70.2186 109.182 71.0037C109.182 71.0037 107.325 70.6711 107.022 68.3533Z" fill="black"/>
<path opacity="0.1" d="M124.328 70.9014C124.822 70.1654 125.222 69.3709 125.52 68.5361C125.52 68.5361 125.604 70.4043 124.328 70.9014Z" fill="black"/>
<path opacity="0.1" d="M107.102 69.7316C107.301 70.4638 107.594 71.1669 107.976 71.8227C107.628 71.6112 107.356 71.2949 107.199 70.9192C107.042 70.5435 107.008 70.1277 107.102 69.7316V69.7316Z" fill="black"/>
<path d="M109.548 134.714C109.548 134.714 105.852 133.317 105.428 132.378H102.137L102.072 135.862H104.766L105.084 135.54L105.592 135.862C107.237 135.862 108.754 135.796 109.8 135.427C109.825 135.296 109.815 135.161 109.77 135.036C109.726 134.911 109.649 134.799 109.548 134.714V134.714Z" fill="#263238"/>
<path d="M107.091 32.8444C111.654 32.2777 118.168 32.3326 122.537 33.0857C123.628 33.2836 124.63 33.8196 125.4 34.6181C126.171 35.4165 126.67 36.4368 126.829 37.5348C127.746 44.1335 126.957 55.664 126.372 67.2712C116.391 70.6857 105.863 67.2236 105.863 67.2236C105.497 64.8839 106.316 57.2104 106.864 53.1159C106.042 48.8861 104.305 44.0421 103.143 38.4231C103.002 37.7946 102.994 37.1434 103.121 36.5117C103.247 35.88 103.505 35.2819 103.877 34.756C104.249 34.2302 104.727 33.7883 105.281 33.459C105.835 33.1297 106.451 32.9203 107.091 32.8444V32.8444Z" fill="#263238"/>
<path opacity="0.1" d="M107.091 32.8444C111.654 32.2777 118.168 32.3326 122.537 33.0857C123.628 33.2836 124.63 33.8196 125.4 34.6181C126.171 35.4165 126.67 36.4368 126.829 37.5348C127.746 44.1335 126.957 55.664 126.372 67.2712C116.391 70.6857 105.863 67.2236 105.863 67.2236C105.497 64.8839 106.316 57.2104 106.864 53.1159C106.042 48.8861 104.305 44.0421 103.143 38.4231C103.002 37.7946 102.994 37.1434 103.121 36.5117C103.247 35.88 103.505 35.2819 103.877 34.756C104.249 34.2302 104.727 33.7883 105.281 33.459C105.835 33.1297 106.451 32.9203 107.091 32.8444V32.8444Z" fill="white"/>
<path d="M111.606 24.1327L116.797 28.3917C116.125 30.1794 115.913 32.0475 118.845 32.7531C119.576 33.7219 118.479 35.4218 117.177 36.0835C114.099 35.3816 112.326 34.5554 111.131 32.9139C111.507 31.6271 112.107 26.7758 111.606 24.1327Z" fill="#FF8B7B"/>
<path opacity="0.2" d="M113.77 25.9094L116.797 28.3881C116.633 28.8014 116.511 29.23 116.432 29.6676C115.258 29.7517 113.628 28.5709 113.555 27.496C113.528 26.9584 113.601 26.4205 113.77 25.9094V25.9094Z" fill="black"/>
<path d="M110.86 21.2299C111.335 24.4872 111.445 26.4174 113.24 27.9456C115.942 30.2451 119.861 28.3733 120.373 25.0209C120.83 22.0122 119.978 17.1902 116.662 16.1812C115.926 15.9574 115.146 15.9242 114.394 16.0848C113.642 16.2453 112.943 16.5944 112.363 17.0991C111.783 17.6039 111.341 18.2478 111.078 18.9703C110.815 19.6929 110.74 20.4704 110.86 21.2299Z" fill="#FF8B7B"/>
<path d="M110.831 22.7325C111.166 23.0952 111.598 23.3534 112.076 23.476C112.554 23.5986 113.057 23.5803 113.525 23.4234C112.743 22.6301 113.503 19.7274 112.721 18.5466C114.235 18.8463 120.128 19.7018 120.691 17.6582C121.301 15.4647 118.863 13.7136 117.495 13.5491C117.898 14.463 117.861 15.1247 116.362 14.8286C114.863 14.5325 108.685 13.1067 109.369 16.0021C107.38 16.0021 107.245 18.8975 108.7 20.2831C109.497 21.02 110.211 21.8412 110.831 22.7325V22.7325Z" fill="#263238"/>
<path d="M109.734 15.8631C108.542 15.567 108.915 14.4703 109.182 14.3569C108.067 14.6275 107.661 15.7242 109.007 16.2287C110.352 16.7332 109.734 15.8631 109.734 15.8631Z" fill="#263238"/>
<path d="M109.943 23.2296C110.053 23.5866 110.234 23.918 110.474 24.2047C110.713 24.4915 111.008 24.7279 111.339 24.9004C112.235 25.3573 112.886 24.6042 112.801 23.661C112.732 22.8092 112.187 21.548 111.207 21.4675C110.992 21.4568 110.777 21.5003 110.583 21.594C110.388 21.6877 110.221 21.8286 110.095 22.0039C109.969 22.1792 109.889 22.3832 109.863 22.5974C109.836 22.8115 109.863 23.0289 109.943 23.2296V23.2296Z" fill="#FF8B7B"/>
<path d="M115.434 21.3469C115.456 21.6138 115.616 21.8185 115.799 21.8039C115.982 21.7892 116.099 21.5553 116.077 21.2921C116.055 21.0288 115.894 20.8205 115.711 20.8351C115.529 20.8497 115.412 21.08 115.434 21.3469Z" fill="#263238"/>
<path d="M118.621 21.2701C118.643 21.537 118.804 21.7417 118.987 21.7235C119.17 21.7052 119.283 21.4785 119.261 21.2116C119.239 20.9448 119.078 20.7437 118.896 20.7583C118.713 20.7729 118.6 21.0033 118.621 21.2701Z" fill="#263238"/>
<path d="M117.974 21.6284C118.359 22.4142 118.851 23.1426 119.437 23.7927C119.002 24.2752 118.183 24.1582 118.183 24.1582L117.974 21.6284Z" fill="#FF5652"/>
<path d="M114.94 20.4987C114.915 20.5058 114.888 20.5058 114.863 20.4987C114.844 20.4915 114.826 20.4804 114.811 20.466C114.796 20.4516 114.784 20.4344 114.775 20.4152C114.767 20.3961 114.763 20.3754 114.763 20.3546C114.763 20.3338 114.767 20.3131 114.776 20.294C114.863 20.0593 115.005 19.8487 115.19 19.6797C115.375 19.5106 115.598 19.3879 115.839 19.3216C115.881 19.3133 115.923 19.3218 115.958 19.3451C115.993 19.3684 116.018 19.4047 116.026 19.4459C116.034 19.4871 116.026 19.5299 116.002 19.5648C115.979 19.5998 115.943 19.6241 115.902 19.6323V19.6323C115.71 19.6864 115.535 19.7853 115.389 19.9207C115.244 20.0561 115.132 20.2241 115.064 20.411C115.053 20.4349 115.035 20.4556 115.014 20.4709C114.992 20.4862 114.967 20.4958 114.94 20.4987V20.4987Z" fill="#263238"/>
<path d="M120.471 20.0747C120.445 20.0749 120.419 20.0682 120.396 20.0554C120.373 20.0426 120.354 20.0241 120.34 20.0016C120.242 19.8307 120.106 19.6855 119.941 19.5781C119.776 19.4706 119.588 19.404 119.393 19.3838C119.372 19.3833 119.352 19.3788 119.333 19.3704C119.314 19.3621 119.297 19.3501 119.283 19.3352C119.268 19.3202 119.257 19.3026 119.25 19.2834C119.242 19.2641 119.239 19.2436 119.239 19.2229C119.241 19.1809 119.259 19.1413 119.29 19.1126C119.321 19.0839 119.362 19.0684 119.404 19.0694C119.652 19.092 119.89 19.1734 120.1 19.307C120.31 19.4405 120.485 19.6223 120.61 19.8371C120.631 19.8728 120.637 19.915 120.628 19.9552C120.618 19.9953 120.594 20.0303 120.559 20.0528C120.533 20.0702 120.502 20.078 120.471 20.0747V20.0747Z" fill="#263238"/>
<path d="M111.131 32.9139C111.131 32.9139 116.457 41.0079 118.483 46.7183C120.479 40.0171 120.709 34.6541 118.848 32.7531C118.249 33.5098 115.836 34.5334 111.131 32.9139Z" fill="#E0E0E0"/>
<path d="M109.314 38.8948L108.798 40.3571L108.287 41.8779C107.947 42.8906 107.636 43.9069 107.347 44.9049C107.201 45.4058 107.073 45.903 106.956 46.3929C106.839 46.8827 106.725 47.369 106.645 47.8333C106.565 48.2975 106.502 48.7472 106.462 49.1493C106.441 49.4573 106.441 49.7663 106.462 50.0743L106.272 49.5405C106.119 49.2517 105.961 49.1749 105.954 49.1749C105.947 49.1749 106.005 49.248 106.119 49.3285C106.459 49.5292 106.821 49.6911 107.197 49.811C108.169 50.1377 109.162 50.3991 110.169 50.5934C111.24 50.8054 112.344 50.959 113.459 51.1418C114.575 51.3246 115.722 51.4525 116.826 51.6097H116.878C117.263 51.6649 117.617 51.8548 117.876 52.1457C118.135 52.4367 118.282 52.8099 118.292 53.1992C118.302 53.5886 118.174 53.9689 117.931 54.2728C117.687 54.5768 117.344 54.7847 116.962 54.8597C115.771 55.0858 114.569 55.2518 113.361 55.3569C112.154 55.4666 110.937 55.5214 109.705 55.5141C108.406 55.5118 107.109 55.398 105.83 55.1741C105.078 55.0339 104.343 54.8171 103.636 54.527C103.165 54.3328 102.721 54.0798 102.313 53.7739C101.712 53.3301 101.224 52.7517 100.887 52.085C100.825 51.9608 100.775 51.8311 100.737 51.6974L100.697 51.5476C100.484 50.7517 100.367 49.933 100.35 49.1091C100.332 48.4221 100.358 47.7347 100.427 47.0509C100.543 45.8018 100.745 44.5621 101.03 43.3403C101.289 42.1485 101.618 40.9969 101.973 39.8599C102.156 39.2933 102.338 38.7303 102.543 38.1709C102.748 37.6116 102.953 37.0742 103.205 36.471C103.535 35.683 104.158 35.0542 104.943 34.7176C105.729 34.381 106.614 34.363 107.412 34.6673C108.21 34.9717 108.859 35.5746 109.221 36.3486C109.582 37.1225 109.629 38.0068 109.35 38.8144L109.314 38.8948Z" fill="#E0E0E0"/>
<path d="M117.346 52.0813L120.577 52.4835L118.793 56.6182C118.793 56.6182 115.843 55.887 115.631 54.2638C115.61 54.0844 115.653 53.9032 115.752 53.752L116.585 52.4396C116.665 52.3143 116.779 52.2143 116.914 52.1509C117.048 52.0875 117.198 52.0634 117.346 52.0813V52.0813Z" fill="#FF8B7B"/>
<path d="M123.001 55.5434L122.131 56.8888C121.962 57.1474 121.707 57.3377 121.412 57.4261C121.116 57.5144 120.798 57.495 120.515 57.3713L118.793 56.6182L120.577 52.4835L122.592 53.7302C122.739 53.8211 122.867 53.9406 122.967 54.0815C123.068 54.2224 123.139 54.3819 123.177 54.5508C123.215 54.7196 123.219 54.8944 123.189 55.0649C123.159 55.2353 123.095 55.398 123.001 55.5434V55.5434Z" fill="#FF8B7B"/>
<path d="M111.39 31.6562C110.711 31.7641 110.089 32.0992 109.625 32.6068C111.072 34.5386 113.136 35.9185 115.474 36.5185C115.306 35.9591 115.81 34.325 116.366 33.7401C114.322 33.4366 111.39 31.6562 111.39 31.6562Z" fill="#FAFAFA"/>
<path d="M117.006 31.8573C117.699 31.9833 118.358 32.2536 118.94 32.6506C118.94 32.6506 120.987 34.9355 118.574 36.226C118.738 35.6667 117.477 34.1751 116.348 33.74C118.388 33.4366 117.006 31.8573 117.006 31.8573Z" fill="#FAFAFA"/>
<path d="M116.574 35.0416C114.958 34.1751 112.959 33.2356 113.514 34.7527C114.07 36.2699 113.335 36.7963 114.059 37.3118C114.783 37.8273 116.253 36.4125 116.739 36.2151C117.225 36.0177 116.574 35.0416 116.574 35.0416Z" fill="#8A1114"/>
<path d="M117.719 35.0306C118.951 34.2007 120.493 33.3014 120.219 34.782C119.945 36.2626 120.625 36.7781 120.087 37.2789C119.55 37.7798 118.168 36.3796 117.729 36.1822C117.291 35.9848 117.719 35.0306 117.719 35.0306Z" fill="#8A1114"/>
<path d="M116.355 34.9246C116.72 34.7052 117.612 34.4274 118.055 35.0233C118.497 35.6192 118.355 36.6172 117.744 36.7379C117.526 36.7819 117.3 36.7661 117.09 36.6921C116.88 36.6181 116.694 36.4886 116.552 36.3174C116.688 36.099 116.742 35.8398 116.706 35.5852C116.67 35.3306 116.546 35.0968 116.355 34.9246V34.9246Z" fill="#8A1114"/>
<path d="M106.056 132.714L101.622 132.838L101.388 130.327L106.539 130.634L106.056 132.714Z" fill="black"/>
<path d="M126.522 132.707L121.733 132.838L121.202 130.663L126.551 130.144L126.522 132.707Z" fill="black"/>
<path d="M116.084 51.2295C113.845 50.5675 111.536 50.1687 109.204 50.0414C108.707 50.0706 108.517 61.3049 108.557 65.9003C108.557 66.5218 115.708 66.3975 117.536 66.116C117.638 64.8328 117.66 55.4666 118.135 52.5383C118.172 52.3092 118.13 52.0746 118.017 51.8718C117.905 51.6691 117.727 51.5099 117.514 51.4196C117.061 51.237 116.569 51.1716 116.084 51.2295V51.2295Z" fill="white"/>
<path d="M153.516 33.2466H133.219V33.8242H153.516V33.2466Z" fill="#8A1114"/>
<path d="M153.092 33.8242H133.643L134.389 34.23H152.35L153.092 33.8242Z" fill="#8A1114"/>
<path opacity="0.2" d="M153.092 33.8242H133.643L134.389 34.23H152.35L153.092 33.8242Z" fill="black"/>
<path d="M144.205 25.0868C144.206 25.2526 144.157 25.4148 144.066 25.5529C143.974 25.6911 143.843 25.799 143.691 25.8629C143.538 25.9268 143.369 25.9439 143.207 25.912C143.044 25.8801 142.894 25.8007 142.777 25.6838C142.66 25.5668 142.579 25.4177 142.547 25.2552C142.514 25.0927 142.531 24.9241 142.594 24.771C142.657 24.6178 142.764 24.4868 142.902 24.3947C143.04 24.3025 143.202 24.2533 143.368 24.2533C143.477 24.2528 143.586 24.274 143.688 24.3157C143.789 24.3574 143.882 24.4187 143.959 24.4961C144.037 24.5736 144.099 24.6656 144.141 24.767C144.183 24.8684 144.205 24.9771 144.205 25.0868Z" fill="#8A1114"/>
<path d="M152.142 30.5668C151.578 28.8212 150.506 27.2836 149.063 26.1506L149.29 25.8618C150.791 27.0406 151.906 28.6407 152.493 30.4572L152.142 30.5668Z" fill="#8A1114"/>
<path d="M147.795 25.3098C147.385 25.0836 146.959 24.8892 146.519 24.7285L146.643 24.3849C147.101 24.5569 147.544 24.7635 147.97 25.0027L147.795 25.3098Z" fill="#8A1114"/>
<path d="M143.368 25.0868C141.166 25.0868 139.054 25.9615 137.497 27.5185C135.94 29.0755 135.065 31.1872 135.065 33.3891H151.67C151.67 31.1872 150.795 29.0755 149.238 27.5185C147.681 25.9615 145.57 25.0868 143.368 25.0868V25.0868Z" fill="#8A1114"/>
<path opacity="0.3" d="M136.21 32.647H138.356C138.43 32.6457 138.501 32.6188 138.558 32.5708C138.615 32.5228 138.653 32.4567 138.666 32.3837C139.098 30.1098 140.454 28.1284 142.611 26.4065C142.66 26.3672 142.695 26.313 142.71 26.2521C142.725 26.1913 142.72 26.1271 142.696 26.0692C142.672 26.0114 142.629 25.9631 142.575 25.9316C142.521 25.9001 142.458 25.8871 142.395 25.8947C140.764 26.11 139.247 26.8503 138.074 28.0038C136.901 29.1573 136.135 30.6614 135.892 32.2887C135.886 32.3337 135.89 32.3794 135.903 32.4228C135.917 32.4661 135.939 32.5061 135.969 32.5401C135.999 32.574 136.036 32.6011 136.078 32.6195C136.119 32.638 136.164 32.6473 136.21 32.647Z" fill="white"/>
<path d="M116.954 25.1087C117.125 25.1162 117.297 25.1076 117.466 25.0831C117.489 25.0787 117.509 25.0654 117.522 25.0463C117.535 25.0271 117.54 25.0035 117.536 24.9808C117.53 24.9569 117.515 24.9361 117.495 24.922C117.475 24.9079 117.45 24.9015 117.426 24.904C117.044 24.9608 116.654 24.9304 116.286 24.8152C115.917 24.6999 115.58 24.5028 115.298 24.2386C115.29 24.2299 115.28 24.2229 115.269 24.2182C115.258 24.2134 115.246 24.2109 115.234 24.2109C115.222 24.2109 115.211 24.2134 115.2 24.2182C115.189 24.2229 115.179 24.2299 115.17 24.2386C115.154 24.2561 115.146 24.2789 115.146 24.3026C115.146 24.3263 115.154 24.3491 115.17 24.3666C115.654 24.8243 116.289 25.0884 116.954 25.1087V25.1087Z" fill="#263238"/>
<path d="M20.308 195L16.02 178.936L11.732 195H6.804L0.916 172.024H5.652L9.364 187.608L13.588 172.024H18.548L22.644 187.672L26.388 172.024H31.156L25.236 195H20.308ZM35.4335 186.2H45.6095L46.8895 190.072H34.0255L35.4335 186.2ZM46.6655 195L40.5215 177.336L34.2495 195H29.3535L37.9935 172.024H43.3055L51.8815 195H46.6655ZM59.5445 195H54.6805V172.024H59.5445V195ZM74.515 195H69.651V176.408H62.419V172.024H81.779V176.408H74.515V195ZM100.137 190.776V195H84.6805V172.024H99.9125V176.248H89.5445V181.08H98.9525V185.272H89.5445V190.776H100.137ZM108.763 195H103.899V172.024H112.891C115.793 172.024 118.043 172.675 119.643 173.976C121.243 175.256 122.043 177.091 122.043 179.48C122.043 181.016 121.585 182.381 120.667 183.576C119.771 184.749 118.502 185.603 116.859 186.136L122.779 195H116.987L111.803 186.872H108.763V195ZM108.763 176.056V182.872H112.667C114.139 182.872 115.259 182.595 116.027 182.04C116.795 181.464 117.179 180.611 117.179 179.48C117.179 178.328 116.795 177.475 116.027 176.92C115.259 176.344 114.139 176.056 112.667 176.056H108.763ZM128.75 186.84H140.142L140.622 188.152H127.918L128.75 186.84ZM142.574 195L134.286 173.656L125.966 195H124.43L133.486 172.024H135.182L144.174 195H142.574ZM155.076 186.2H149.444V195H147.876V172.024H155.076C156.548 172.024 157.849 172.301 158.98 172.856C160.132 173.411 161.028 174.211 161.668 175.256C162.329 176.301 162.66 177.581 162.66 179.096C162.66 180.611 162.329 181.901 161.668 182.968C161.028 184.035 160.132 184.845 158.98 185.4C157.849 185.933 156.548 186.2 155.076 186.2ZM155.044 173.368H149.444V184.888H155.044C156.878 184.888 158.35 184.387 159.46 183.384C160.569 182.381 161.124 180.963 161.124 179.128C161.124 177.272 160.569 175.853 159.46 174.872C158.35 173.869 156.878 173.368 155.044 173.368ZM173.732 186.2H168.1V195H166.532V172.024H173.732C175.204 172.024 176.505 172.301 177.636 172.856C178.788 173.411 179.684 174.211 180.324 175.256C180.985 176.301 181.316 177.581 181.316 179.096C181.316 180.611 180.985 181.901 180.324 182.968C179.684 184.035 178.788 184.845 177.636 185.4C176.505 185.933 175.204 186.2 173.732 186.2ZM173.7 173.368H168.1V184.888H173.7C175.534 184.888 177.006 184.387 178.116 183.384C179.225 182.381 179.78 180.963 179.78 179.128C179.78 177.272 179.225 175.853 178.116 174.872C177.006 173.869 175.534 173.368 173.7 173.368Z" fill="white"/>
<path opacity="0.9" d="M32.4789 226.24C31.6469 226.24 30.8789 226.085 30.1749 225.776C29.4709 225.467 28.8575 225.04 28.3349 224.496C27.8122 223.952 27.4069 223.317 27.1189 222.592C26.8309 221.856 26.6869 221.072 26.6869 220.24C26.6869 219.408 26.8309 218.629 27.1189 217.904C27.4069 217.179 27.8122 216.544 28.3349 216C28.8575 215.456 29.4709 215.035 30.1749 214.736C30.8789 214.427 31.6469 214.272 32.4789 214.272C33.3109 214.272 34.0789 214.427 34.7829 214.736C35.4869 215.035 36.1002 215.456 36.6229 216C37.1562 216.544 37.5669 217.179 37.8549 217.904C38.1429 218.629 38.2869 219.408 38.2869 220.24C38.2869 221.072 38.1429 221.856 37.8549 222.592C37.5669 223.317 37.1562 223.952 36.6229 224.496C36.1002 225.04 35.4869 225.467 34.7829 225.776C34.0789 226.085 33.3109 226.24 32.4789 226.24ZM32.4789 225.168C33.1615 225.168 33.7802 225.045 34.3349 224.8C34.8895 224.544 35.3695 224.192 35.7749 223.744C36.1802 223.285 36.4895 222.757 36.7029 222.16C36.9269 221.563 37.0389 220.923 37.0389 220.24C37.0389 219.557 36.9269 218.917 36.7029 218.32C36.4895 217.723 36.1802 217.205 35.7749 216.768C35.3695 216.32 34.8895 215.973 34.3349 215.728C33.7802 215.472 33.1615 215.344 32.4789 215.344C31.8069 215.344 31.1882 215.472 30.6229 215.728C30.0682 215.973 29.5882 216.32 29.1829 216.768C28.7775 217.205 28.4629 217.723 28.2389 218.32C28.0255 218.917 27.9189 219.557 27.9189 220.24C27.9189 220.923 28.0255 221.563 28.2389 222.16C28.4629 222.757 28.7775 223.285 29.1829 223.744C29.5882 224.192 30.0682 224.544 30.6229 224.8C31.1882 225.045 31.8069 225.168 32.4789 225.168ZM45.05 221.84H50.602L50.938 222.816H44.57L45.05 221.84ZM51.642 226L47.77 215.792L43.866 226H42.682L47.146 214.512H48.458L52.906 226H51.642ZM62.2721 221.776C62.2721 222.64 62.1175 223.403 61.8081 224.064C61.5095 224.725 61.0828 225.243 60.5281 225.616C59.9841 225.979 59.3335 226.16 58.5761 226.16C57.9468 226.16 57.3761 225.995 56.8641 225.664C56.3521 225.333 55.9521 224.869 55.6641 224.272V229.088H54.5441V217.568H55.5841V219.392C55.8721 218.763 56.2828 218.277 56.8161 217.936C57.3495 217.584 57.9361 217.408 58.5761 217.408C59.3228 217.408 59.9735 217.595 60.5281 217.968C61.0828 218.331 61.5095 218.843 61.8081 219.504C62.1175 220.155 62.2721 220.912 62.2721 221.776ZM61.1361 221.776C61.1361 220.709 60.8801 219.877 60.3681 219.28C59.8668 218.683 59.2055 218.384 58.3841 218.384C57.8721 218.384 57.4081 218.517 56.9921 218.784C56.5761 219.051 56.2455 219.435 56.0001 219.936C55.7655 220.437 55.6481 221.051 55.6481 221.776C55.6481 222.469 55.7655 223.072 56.0001 223.584C56.2348 224.096 56.5601 224.491 56.9761 224.768C57.3921 225.045 57.8615 225.184 58.3841 225.184C59.2055 225.184 59.8668 224.885 60.3681 224.288C60.8801 223.691 61.1361 222.853 61.1361 221.776ZM71.8034 221.776C71.8034 222.64 71.6487 223.403 71.3394 224.064C71.0407 224.725 70.614 225.243 70.0594 225.616C69.5154 225.979 68.8647 226.16 68.1074 226.16C67.478 226.16 66.9074 225.995 66.3954 225.664C65.8834 225.333 65.4834 224.869 65.1954 224.272V229.088H64.0754V217.568H65.1154V219.392C65.4034 218.763 65.814 218.277 66.3474 217.936C66.8807 217.584 67.4674 217.408 68.1074 217.408C68.854 217.408 69.5047 217.595 70.0594 217.968C70.614 218.331 71.0407 218.843 71.3394 219.504C71.6487 220.155 71.8034 220.912 71.8034 221.776ZM70.6674 221.776C70.6674 220.709 70.4114 219.877 69.8994 219.28C69.398 218.683 68.7367 218.384 67.9154 218.384C67.4034 218.384 66.9394 218.517 66.5234 218.784C66.1074 219.051 65.7767 219.435 65.5314 219.936C65.2967 220.437 65.1794 221.051 65.1794 221.776C65.1794 222.469 65.2967 223.072 65.5314 223.584C65.766 224.096 66.0914 224.491 66.5074 224.768C66.9234 225.045 67.3927 225.184 67.9154 225.184C68.7367 225.184 69.398 224.885 69.8994 224.288C70.4114 223.691 70.6674 222.853 70.6674 221.776ZM76.3264 221.776C76.3264 220.912 76.4757 220.155 76.7744 219.504C77.0837 218.843 77.5157 218.331 78.0704 217.968C78.625 217.595 79.281 217.408 80.0384 217.408C80.6677 217.408 81.2384 217.579 81.7504 217.92C82.2624 218.251 82.657 218.72 82.9344 219.328V214.512H84.0544V226H83.0144V224.224C82.7157 224.832 82.305 225.307 81.7824 225.648C81.2704 225.989 80.689 226.16 80.0384 226.16C79.281 226.16 78.625 225.979 78.0704 225.616C77.5157 225.243 77.0837 224.725 76.7744 224.064C76.4757 223.403 76.3264 222.64 76.3264 221.776ZM77.4624 221.776C77.4624 222.853 77.713 223.691 78.2144 224.288C78.7157 224.885 79.377 225.184 80.1984 225.184C80.753 225.184 81.233 225.045 81.6384 224.768C82.0544 224.491 82.3744 224.096 82.5984 223.584C82.833 223.061 82.9504 222.448 82.9504 221.744C82.9504 221.04 82.8277 220.437 82.5824 219.936C82.3477 219.435 82.0224 219.051 81.6064 218.784C81.201 218.517 80.7317 218.384 80.1984 218.384C79.377 218.384 78.7157 218.683 78.2144 219.28C77.713 219.877 77.4624 220.709 77.4624 221.776ZM89.8576 226.16C89.2816 226.16 88.7483 226.053 88.2576 225.84C87.767 225.627 87.3403 225.323 86.9776 224.928C86.6256 224.533 86.3483 224.069 86.1456 223.536C85.9536 223.003 85.8576 222.416 85.8576 221.776C85.8576 221.147 85.9536 220.565 86.1456 220.032C86.3483 219.499 86.6256 219.04 86.9776 218.656C87.3403 218.261 87.767 217.957 88.2576 217.744C88.7483 217.531 89.2816 217.424 89.8576 217.424C90.4443 217.424 90.983 217.531 91.4736 217.744C91.9643 217.957 92.3856 218.261 92.7376 218.656C93.1003 219.04 93.3776 219.499 93.5696 220.032C93.7723 220.565 93.8736 221.147 93.8736 221.776C93.8736 222.416 93.7723 223.003 93.5696 223.536C93.3776 224.069 93.1003 224.533 92.7376 224.928C92.3856 225.323 91.9643 225.627 91.4736 225.84C90.983 226.053 90.4443 226.16 89.8576 226.16ZM89.8576 225.2C90.4123 225.2 90.903 225.061 91.3296 224.784C91.767 224.496 92.1083 224.096 92.3536 223.584C92.6096 223.072 92.7376 222.469 92.7376 221.776C92.7376 221.083 92.6096 220.485 92.3536 219.984C92.1083 219.483 91.767 219.093 91.3296 218.816C90.903 218.539 90.4123 218.4 89.8576 218.4C89.3136 218.4 88.823 218.539 88.3856 218.816C87.959 219.093 87.6176 219.483 87.3616 219.984C87.1163 220.485 86.9936 221.083 86.9936 221.776C86.9936 222.469 87.1163 223.072 87.3616 223.584C87.6176 224.096 87.959 224.496 88.3856 224.784C88.823 225.061 89.3136 225.2 89.8576 225.2ZM104.261 226.24C103.439 226.24 102.677 226.091 101.973 225.792C101.269 225.493 100.65 225.077 100.117 224.544C99.5938 224.011 99.1832 223.381 98.8845 222.656C98.5965 221.92 98.4525 221.12 98.4525 220.256C98.4525 219.403 98.5912 218.619 98.8685 217.904C99.1565 217.179 99.5565 216.544 100.069 216C100.581 215.445 101.183 215.019 101.877 214.72C102.581 214.421 103.349 214.272 104.181 214.272C105.183 214.272 106.063 214.459 106.821 214.832C107.578 215.205 108.207 215.707 108.709 216.336C109.21 216.965 109.567 217.669 109.781 218.448H108.421C108.261 217.872 107.994 217.349 107.621 216.88C107.247 216.411 106.767 216.037 106.181 215.76C105.605 215.483 104.927 215.344 104.149 215.344C103.274 215.344 102.501 215.557 101.829 215.984C101.157 216.4 100.629 216.976 100.245 217.712C99.8712 218.448 99.6845 219.301 99.6845 220.272C99.6845 221.211 99.8765 222.053 100.261 222.8C100.645 223.547 101.183 224.133 101.877 224.56C102.57 224.987 103.375 225.2 104.293 225.2C105.125 225.2 105.85 225.04 106.469 224.72C107.087 224.389 107.583 223.925 107.957 223.328C108.341 222.731 108.581 222.032 108.677 221.232H104.165V220.256H109.925C109.925 221.163 109.786 221.984 109.509 222.72C109.242 223.456 108.858 224.091 108.357 224.624C107.855 225.147 107.258 225.547 106.565 225.824C105.882 226.101 105.114 226.24 104.261 226.24ZM116.963 226V224.464C116.717 224.987 116.349 225.403 115.859 225.712C115.368 226.011 114.792 226.16 114.131 226.16C113.256 226.16 112.557 225.936 112.035 225.488C111.512 225.029 111.251 224.421 111.251 223.664C111.251 222.843 111.576 222.224 112.227 221.808C112.877 221.381 113.843 221.168 115.123 221.168C115.379 221.168 115.629 221.173 115.875 221.184C116.12 221.195 116.445 221.221 116.851 221.264V220.544C116.851 219.84 116.669 219.291 116.307 218.896C115.955 218.501 115.459 218.304 114.819 218.304C114.136 218.304 113.592 218.507 113.187 218.912C112.781 219.307 112.573 219.845 112.562 220.528H111.539C111.549 219.899 111.693 219.355 111.971 218.896C112.248 218.427 112.627 218.064 113.107 217.808C113.597 217.541 114.163 217.408 114.803 217.408C115.795 217.408 116.563 217.68 117.107 218.224C117.651 218.768 117.923 219.531 117.923 220.512V226H116.963ZM112.323 223.632C112.323 224.144 112.504 224.56 112.867 224.88C113.229 225.189 113.704 225.344 114.291 225.344C115.08 225.344 115.704 225.109 116.163 224.64C116.621 224.16 116.851 223.525 116.851 222.736V221.984C116.488 221.952 116.173 221.931 115.907 221.92C115.651 221.909 115.405 221.904 115.171 221.904C114.221 221.904 113.507 222.048 113.027 222.336C112.557 222.613 112.323 223.045 112.323 223.632ZM121.399 221.488V226H120.279V217.568H121.319V219.488C121.617 218.869 122.055 218.373 122.631 218C123.207 217.627 123.841 217.44 124.535 217.44V218.608C123.948 218.587 123.415 218.688 122.935 218.912C122.465 219.136 122.092 219.467 121.815 219.904C121.537 220.341 121.399 220.869 121.399 221.488ZM129.04 226.176C128.293 226.176 127.637 225.989 127.072 225.616C126.507 225.243 126.064 224.725 125.744 224.064C125.424 223.403 125.264 222.64 125.264 221.776C125.264 220.923 125.424 220.171 125.744 219.52C126.064 218.859 126.507 218.341 127.072 217.968C127.648 217.595 128.304 217.408 129.04 217.408C129.691 217.408 130.277 217.547 130.8 217.824C131.323 218.101 131.749 218.496 132.08 219.008C132.421 219.52 132.645 220.128 132.752 220.832H131.616C131.488 220.064 131.195 219.467 130.736 219.04C130.288 218.603 129.723 218.384 129.04 218.384C128.517 218.384 128.053 218.528 127.648 218.816C127.253 219.104 126.944 219.499 126.72 220C126.507 220.501 126.4 221.093 126.4 221.776C126.4 222.459 126.507 223.061 126.72 223.584C126.944 224.096 127.253 224.496 127.648 224.784C128.053 225.061 128.517 225.2 129.04 225.2C129.733 225.2 130.304 224.987 130.752 224.56C131.2 224.123 131.488 223.515 131.616 222.736H132.752C132.656 223.451 132.437 224.064 132.096 224.576C131.765 225.088 131.339 225.483 130.816 225.76C130.293 226.037 129.701 226.176 129.04 226.176ZM130.624 227.888C130.624 228.272 130.469 228.581 130.16 228.816C129.851 229.051 129.461 229.168 128.992 229.168C128.523 229.168 128.123 229.051 127.792 228.816C127.472 228.581 127.28 228.245 127.216 227.808H128C128.053 228.053 128.165 228.235 128.336 228.352C128.507 228.48 128.72 228.544 128.976 228.544C129.211 228.544 129.397 228.475 129.536 228.336C129.685 228.208 129.76 228.048 129.76 227.856C129.76 227.621 129.691 227.435 129.552 227.296C129.424 227.168 129.253 227.077 129.04 227.024C128.827 226.971 128.597 226.96 128.352 226.992L128.72 225.84H129.392L129.136 226.592C129.573 226.624 129.931 226.757 130.208 226.992C130.485 227.227 130.624 227.525 130.624 227.888ZM137.811 226.16C137.235 226.16 136.701 226.053 136.211 225.84C135.72 225.627 135.293 225.323 134.931 224.928C134.579 224.533 134.301 224.069 134.099 223.536C133.907 223.003 133.811 222.416 133.811 221.776C133.811 221.147 133.907 220.565 134.099 220.032C134.301 219.499 134.579 219.04 134.931 218.656C135.293 218.261 135.72 217.957 136.211 217.744C136.701 217.531 137.235 217.424 137.811 217.424C138.397 217.424 138.936 217.531 139.427 217.744C139.917 217.957 140.339 218.261 140.691 218.656C141.053 219.04 141.331 219.499 141.523 220.032C141.725 220.565 141.827 221.147 141.827 221.776C141.827 222.416 141.725 223.003 141.523 223.536C141.331 224.069 141.053 224.533 140.691 224.928C140.339 225.323 139.917 225.627 139.427 225.84C138.936 226.053 138.397 226.16 137.811 226.16ZM137.811 225.2C138.365 225.2 138.856 225.061 139.283 224.784C139.72 224.496 140.061 224.096 140.307 223.584C140.563 223.072 140.691 222.469 140.691 221.776C140.691 221.083 140.563 220.485 140.307 219.984C140.061 219.483 139.72 219.093 139.283 218.816C138.856 218.539 138.365 218.4 137.811 218.4C137.267 218.4 136.776 218.539 136.339 218.816C135.912 219.093 135.571 219.483 135.315 219.984C135.069 220.485 134.947 221.083 134.947 221.776C134.947 222.469 135.069 223.072 135.315 223.584C135.571 224.096 135.912 224.496 136.339 224.784C136.776 225.061 137.267 225.2 137.811 225.2ZM144.758 226H143.638V217.568H144.678V219.152C144.966 218.608 145.345 218.181 145.814 217.872C146.294 217.563 146.833 217.408 147.43 217.408C148.091 217.408 148.651 217.579 149.11 217.92C149.579 218.261 149.899 218.741 150.07 219.36C150.326 218.763 150.71 218.288 151.222 217.936C151.734 217.584 152.321 217.408 152.982 217.408C153.857 217.408 154.545 217.685 155.046 218.24C155.558 218.784 155.814 219.547 155.814 220.528V226H154.71V220.896C154.71 220.085 154.529 219.467 154.166 219.04C153.814 218.603 153.297 218.384 152.614 218.384C152.187 218.384 151.798 218.501 151.446 218.736C151.094 218.96 150.811 219.275 150.598 219.68C150.395 220.075 150.294 220.533 150.294 221.056V226H149.174V220.896C149.174 220.085 148.998 219.467 148.646 219.04C148.294 218.603 147.771 218.384 147.078 218.384C146.651 218.384 146.257 218.501 145.894 218.736C145.542 218.96 145.265 219.275 145.062 219.68C144.859 220.075 144.758 220.533 144.758 221.056V226Z" fill="white"/>
</svg>
